<mxfile host="app.diagrams.net" agent="Mozilla/5.0 (Windows NT 10.0; Win64; x64; rv:136.0) Gecko/20100101 Firefox/136.0" version="26.1.1">
  <diagram name="Page-1" id="Dqx94daEcHKD5VdHmlBv">
    <mxGraphModel dx="1050" dy="558" grid="1" gridSize="10" guides="1" tooltips="1" connect="1" arrows="1" fold="1" page="1" pageScale="1" pageWidth="827" pageHeight="1169" math="0" shadow="0">
      <root>
        <mxCell id="0" />
        <mxCell id="1" parent="0" />
        <mxCell id="kKrQ2rKjHCKY2WP3vcZc-1" value="" style="rounded=0;whiteSpace=wrap;html=1;" vertex="1" parent="1">
          <mxGeometry x="240" y="20" width="420" height="510" as="geometry" />
        </mxCell>
        <mxCell id="kKrQ2rKjHCKY2WP3vcZc-2" value="emergency Reporting" style="text;html=1;align=center;verticalAlign=middle;whiteSpace=wrap;rounded=0;" vertex="1" parent="1">
          <mxGeometry x="410" y="20" width="60" height="30" as="geometry" />
        </mxCell>
        <mxCell id="kKrQ2rKjHCKY2WP3vcZc-5" style="edgeStyle=orthogonalEdgeStyle;rounded=0;orthogonalLoop=1;jettySize=auto;html=1;entryX=0;entryY=0.5;entryDx=0;entryDy=0;endArrow=none;startFill=0;" edge="1" parent="1" source="kKrQ2rKjHCKY2WP3vcZc-3" target="kKrQ2rKjHCKY2WP3vcZc-4">
          <mxGeometry relative="1" as="geometry" />
        </mxCell>
        <mxCell id="kKrQ2rKjHCKY2WP3vcZc-3" value="&lt;div&gt;Emergency&amp;nbsp;&lt;/div&gt;&lt;div&gt;Response&lt;/div&gt;" style="shape=umlActor;verticalLabelPosition=bottom;verticalAlign=top;html=1;outlineConnect=0;" vertex="1" parent="1">
          <mxGeometry x="90" y="85" width="30" height="60" as="geometry" />
        </mxCell>
        <mxCell id="kKrQ2rKjHCKY2WP3vcZc-4" value="reports emergency" style="ellipse;whiteSpace=wrap;html=1;" vertex="1" parent="1">
          <mxGeometry x="360" y="80" width="140" height="70" as="geometry" />
        </mxCell>
        <mxCell id="kKrQ2rKjHCKY2WP3vcZc-7" value="" style="edgeStyle=orthogonalEdgeStyle;rounded=0;orthogonalLoop=1;jettySize=auto;html=1;endArrow=open;endFill=0;dashed=1;" edge="1" parent="1" source="kKrQ2rKjHCKY2WP3vcZc-6" target="kKrQ2rKjHCKY2WP3vcZc-4">
          <mxGeometry relative="1" as="geometry" />
        </mxCell>
        <mxCell id="kKrQ2rKjHCKY2WP3vcZc-8" value="&amp;lt;&amp;lt;include&amp;gt;&amp;gt;" style="edgeLabel;html=1;align=center;verticalAlign=middle;resizable=0;points=[];" vertex="1" connectable="0" parent="kKrQ2rKjHCKY2WP3vcZc-7">
          <mxGeometry relative="1" as="geometry">
            <mxPoint as="offset" />
          </mxGeometry>
        </mxCell>
        <mxCell id="kKrQ2rKjHCKY2WP3vcZc-6" value="notify all users" style="ellipse;whiteSpace=wrap;html=1;" vertex="1" parent="1">
          <mxGeometry x="360" y="190" width="140" height="70" as="geometry" />
        </mxCell>
        <mxCell id="kKrQ2rKjHCKY2WP3vcZc-10" value="" style="edgeStyle=orthogonalEdgeStyle;rounded=0;orthogonalLoop=1;jettySize=auto;html=1;endArrow=open;endFill=0;dashed=1;" edge="1" parent="1" source="kKrQ2rKjHCKY2WP3vcZc-9" target="kKrQ2rKjHCKY2WP3vcZc-6">
          <mxGeometry relative="1" as="geometry" />
        </mxCell>
        <mxCell id="kKrQ2rKjHCKY2WP3vcZc-11" value="&amp;lt;&amp;lt;extend&amp;gt;&amp;gt;" style="edgeLabel;html=1;align=center;verticalAlign=middle;resizable=0;points=[];" vertex="1" connectable="0" parent="kKrQ2rKjHCKY2WP3vcZc-10">
          <mxGeometry x="-0.1" relative="1" as="geometry">
            <mxPoint as="offset" />
          </mxGeometry>
        </mxCell>
        <mxCell id="kKrQ2rKjHCKY2WP3vcZc-9" value="dispatch response teams" style="ellipse;whiteSpace=wrap;html=1;" vertex="1" parent="1">
          <mxGeometry x="360" y="300" width="140" height="70" as="geometry" />
        </mxCell>
      </root>
    </mxGraphModel>
  </diagram>
</mxfile>
